<?xml version="1.0" encoding="iso-8859-1"?>
<!-- Generator: Adobe Illustrator 18.0.0, SVG Export Plug-In . SVG Version: 6.00 Build 0)  -->
<!DOCTYPE svg PUBLIC "-//W3C//DTD SVG 1.1//EN" "http://www.w3.org/Graphics/SVG/1.1/DTD/svg11.dtd">
<svg xmlns="http://www.w3.org/2000/svg" xmlns:xlink="http://www.w3.org/1999/xlink" version="1.1" id="Capa_1" x="0px" y="0px" viewBox="0 0 301.092 301.092" style="enable-background:new 0 0 301.092 301.092;" xml:space="preserve" width="512px" height="512px">
<path d="M195.363,157.637V51.986c0-1.763-0.621-3.47-1.754-4.82L156.291,2.68C154.866,0.982,152.763,0,150.545,0  c-2.218,0-4.321,0.982-5.746,2.68l-37.317,44.486c-1.133,1.351-1.754,3.058-1.754,4.82v105.65  c-20.25,0.157-36.682,18.941-36.682,42.018c0,20.552,27.463,67.739,30.595,73.054c1.322,2.245,3.734,3.623,6.343,3.623  c0,0,0.001,0,0.002,0c2.606,0,5.021-1.38,6.342-3.627c0.247-0.42,4.421-7.523,9.618-17.371  c10.133,21.503,21.666,41.134,22.257,42.134c1.323,2.246,3.734,3.625,6.343,3.625c2.607,0,5.019-1.379,6.343-3.625  c0.59-1,12.124-20.631,22.257-42.136c5.2,9.85,9.376,16.955,9.624,17.375c1.322,2.246,3.734,3.625,6.342,3.625h0.001  c2.607,0,5.02-1.378,6.343-3.625c3.133-5.313,30.592-52.5,30.592-73.052C232.046,176.576,215.613,157.792,195.363,157.637z   M143.704,27.325h13.682l14.396,17.161h-42.474L143.704,27.325z M180.363,167.965h-22.318V59.486h22.318V167.965z M143.045,59.486  v108.479h-22.317V59.486H143.045z M120.727,182.965h59.636v22.326h-59.636V182.965z M195.131,253.973  c-2.882-5.296-6.4-11.982-9.785-18.994c-1.262-2.613-3.91-4.238-6.841-4.158c-2.899,0.082-5.481,1.859-6.591,4.542  c-6.455,15.579-15.404,32.577-21.369,43.407c-5.965-10.83-14.915-27.828-21.371-43.408c-1.111-2.682-3.692-4.459-6.592-4.541  c-2.9-0.084-5.579,1.545-6.841,4.16c-3.38,7.002-6.898,13.691-9.78,18.99c-10.347-18.997-22.189-44.058-22.189-54.316  c0-14.948,9.827-27.121,21.956-27.291v40.428c0,4.143,3.357,7.5,7.5,7.5h74.636c4.142,0,7.5-3.357,7.5-7.5v-40.428  c12.13,0.168,21.957,12.342,21.957,27.291C217.32,209.905,205.477,234.97,195.131,253.973z" fill="#FFFFFF"/>
<g>
</g>
<g>
</g>
<g>
</g>
<g>
</g>
<g>
</g>
<g>
</g>
<g>
</g>
<g>
</g>
<g>
</g>
<g>
</g>
<g>
</g>
<g>
</g>
<g>
</g>
<g>
</g>
<g>
</g>
</svg>
